<?xml version="1.0" standalone="no"?>
<!DOCTYPE svg PUBLIC "-//W3C//DTD SVG 20010904//EN"
 "http://www.w3.org/TR/2001/REC-SVG-20010904/DTD/svg10.dtd">
<svg version="1.0" xmlns="http://www.w3.org/2000/svg"
 width="512.000000pt" height="512.000000pt" viewBox="0 0 512.000000 512.000000"
 preserveAspectRatio="xMidYMid meet">

<g transform="translate(0.000000,512.000000) scale(0.100000,-0.100000)"
fill="#000000" stroke="none">
<path d="M2170 4571 c-2082 -1060 -1993 -1013 -2017 -1056 -40 -70 -33 -107
53 -273 42 -81 87 -159 101 -173 13 -15 44 -32 68 -39 54 -15 85 -6 213 62
l92 50 0 -1311 0 -1311 -150 0 c-137 0 -152 -2 -170 -20 -30 -30 -27 -83 6
-109 l27 -21 2167 0 2167 0 27 21 c33 26 36 79 6 109 -18 18 -33 20 -170 20
l-150 0 0 1311 0 1311 103 -55 c119 -64 151 -73 206 -56 57 17 80 46 165 211
86 166 93 203 53 273 -25 44 60 -1 -942 509 -237 120 -650 331 -920 469 -373
190 -501 251 -535 255 -42 3 -68 -8 -400 -177z m1255 -915 l850 -433 3 -1352
2 -1351 -180 0 -180 0 0 1116 c0 1151 0 1141 -39 1171 -23 18 -2619 18 -2642
0 -39 -30 -39 -20 -39 -1171 l0 -1116 -180 0 -180 0 2 1351 3 1351 850 434
c468 238 857 433 865 433 8 1 398 -195 865 -433z m-685 -1139 c39 -20 56 -58
41 -94 -19 -47 -46 -53 -221 -53 -175 0 -202 6 -221 53 -10 24 -10 34 2 56 25
45 52 51 219 51 104 0 163 -4 180 -13z m1020 -1182 l0 -815 -1200 0 -1200 0 0
815 0 815 1200 0 1200 0 0 -815z"/>
</g>
</svg>