<?xml version="1.0" standalone="no"?>
<!DOCTYPE svg PUBLIC "-//W3C//DTD SVG 20010904//EN"
 "http://www.w3.org/TR/2001/REC-SVG-20010904/DTD/svg10.dtd">
<svg version="1.0" xmlns="http://www.w3.org/2000/svg"
 width="512.000000pt" height="512.000000pt" viewBox="0 0 512.000000 512.000000"
 preserveAspectRatio="xMidYMid meet">

<g transform="translate(0.000000,512.000000) scale(0.100000,-0.100000)"
fill="red" stroke="none">
<path d="M1321 4624 c-170 -46 -302 -180 -346 -351 -23 -86 -23 -3340 0 -3426
45 -173 178 -307 350 -352 88 -22 2381 -23 2468 0 178 46 320 193 357 369 7
34 10 157 8 344 -3 275 -4 292 -24 318 -39 53 -71 69 -134 69 -63 0 -95 -16
-134 -69 -20 -26 -21 -44 -26 -326 -5 -282 -6 -300 -26 -326 -11 -15 -33 -37
-48 -48 -27 -21 -31 -21 -1206 -21 -1175 0 -1179 0 -1206 21 -15 11 -37 33
-48 48 l-21 27 0 1659 0 1659 21 27 c11 15 33 37 48 48 26 20 44 21 326 26
282 5 300 6 326 26 53 39 69 71 69 134 0 63 -16 95 -69 134 -26 20 -42 21
-329 23 -240 2 -313 -1 -356 -13z"/>
<path d="M2652 4623 c-18 -9 -45 -32 -60 -51 l-27 -35 -3 -531 c-2 -357 1
-548 8 -583 28 -131 132 -268 248 -327 106 -54 131 -56 594 -56 l427 0 3 -429
c3 -416 4 -430 24 -457 39 -53 71 -69 134 -69 63 0 95 16 134 69 20 27 21 40
24 539 2 282 0 528 -3 547 -5 30 -102 131 -673 704 -385 386 -681 674 -699
682 -43 18 -90 17 -131 -3z m671 -1261 c-159 -1 -302 0 -320 3 -41 7 -92 50
-109 92 -11 25 -14 102 -14 335 l0 303 365 -365 365 -365 -287 -3z"/>
</g>
</svg>