<?xml version="1.0" standalone="no"?>
<!DOCTYPE svg PUBLIC "-//W3C//DTD SVG 20010904//EN"
 "http://www.w3.org/TR/2001/REC-SVG-20010904/DTD/svg10.dtd">
<svg version="1.0" xmlns="http://www.w3.org/2000/svg"
 width="512.000000pt" height="512.000000pt" viewBox="0 0 512.000000 512.000000"
 preserveAspectRatio="xMidYMid meet">

<g transform="translate(0.000000,512.000000) scale(0.100000,-0.100000)"
fill="#000000" stroke="none">
<path d="M1165 4356 c-148 -34 -280 -111 -391 -229 -136 -144 -193 -282 -201
-487 -5 -106 -2 -139 16 -210 40 -160 138 -317 256 -410 55 -43 56 -45 33 -54
-239 -97 -422 -226 -567 -402 -162 -195 -258 -411 -296 -664 -38 -248 1 -385
155 -540 315 -318 1035 -539 1955 -600 193 -13 677 -13 870 0 920 61 1640 282
1955 600 154 156 193 291 155 545 -65 429 -325 793 -709 990 -55 28 -118 58
-140 66 l-39 14 58 45 c118 93 216 250 256 409 18 71 21 105 17 210 -8 214
-67 350 -218 502 -96 97 -185 154 -305 196 -74 25 -91 27 -235 28 -148 0 -159
-2 -243 -31 -126 -46 -190 -87 -297 -194 -78 -77 -103 -111 -138 -180 -110
-220 -112 -472 -6 -688 45 -92 136 -207 204 -257 52 -38 52 -39 29 -48 -129
-52 -256 -122 -356 -196 l-31 -24 -44 36 c-97 78 -214 118 -348 118 -134 0
-251 -40 -348 -118 l-44 -36 -31 24 c-100 74 -227 144 -356 196 -23 9 -23 10
29 48 68 50 159 165 204 257 105 214 103 469 -4 683 -89 177 -244 310 -437
378 -77 26 -104 31 -218 33 -85 3 -151 -1 -190 -10z m287 -197 c97 -20 195
-75 273 -153 113 -113 165 -237 165 -396 0 -161 -50 -282 -164 -396 -114 -114
-237 -165 -396 -165 -160 0 -283 51 -395 165 -115 116 -165 237 -165 397 0
158 52 283 164 394 77 76 167 128 258 151 67 16 191 17 260 3z m2460 0 c194
-40 370 -210 423 -409 19 -72 19 -207 -1 -284 -48 -187 -205 -345 -397 -401
-75 -22 -219 -22 -294 0 -194 56 -349 213 -398 402 -19 73 -19 212 0 283 52
195 217 359 408 406 66 16 190 17 259 3z m-2299 -1352 c117 -31 259 -97 362
-168 41 -28 75 -53 75 -54 0 -1 -7 -18 -15 -38 -25 -60 -36 -128 -36 -212 1
-144 49 -269 146 -373 53 -58 55 -61 33 -67 -13 -4 -57 -27 -98 -51 -268 -155
-449 -438 -476 -743 -4 -49 -11 -81 -18 -81 -28 0 -284 52 -416 84 -555 134
-933 362 -966 582 -8 56 12 228 37 322 115 417 460 736 885 817 124 23 362 14
487 -18z m2373 18 c427 -75 777 -395 893 -818 26 -95 45 -256 37 -315 -26
-188 -281 -373 -714 -518 -151 -50 -597 -153 -668 -154 -7 0 -14 32 -18 79
-20 238 -149 490 -329 642 -71 59 -200 140 -245 154 -22 6 -20 9 33 67 150
162 189 399 101 609 -14 32 205 163 358 214 161 54 379 70 552 40z m-1258
-165 c71 -37 128 -97 163 -168 20 -40 24 -63 24 -147 0 -88 -3 -107 -27 -157
-34 -73 -103 -142 -176 -176 -49 -23 -70 -27 -152 -27 -82 0 -103 4 -152 27
-73 34 -142 103 -176 176 -24 50 -27 69 -27 157 0 84 4 108 23 146 70 141 188
212 347 206 80 -3 97 -7 153 -37z m67 -924 c119 -40 209 -97 305 -195 130
-131 203 -288 216 -466 l7 -82 -44 -6 c-318 -45 -1120 -45 -1438 0 l-44 6 7
83 c25 323 271 607 591 680 40 9 104 13 190 10 109 -3 143 -7 210 -30z"/>
<path d="M4223 2528 c-42 -11 -63 -43 -63 -94 0 -58 36 -94 95 -94 36 0 48 5
69 31 66 78 -2 184 -101 157z"/>
<path d="M4428 2325 c-60 -34 -64 -96 -12 -175 80 -124 121 -236 130 -360 10
-135 34 -172 111 -172 29 0 43 7 65 31 25 28 28 39 28 100 0 179 -88 425 -195
548 -36 40 -86 51 -127 28z"/>
</g>
</svg>