<?xml version="1.0" standalone="no"?>
<!DOCTYPE svg PUBLIC "-//W3C//DTD SVG 20010904//EN"
 "http://www.w3.org/TR/2001/REC-SVG-20010904/DTD/svg10.dtd">
<svg version="1.0" xmlns="http://www.w3.org/2000/svg"
 width="512.000000pt" height="512.000000pt" viewBox="0 0 512.000000 512.000000"
 preserveAspectRatio="xMidYMid meet">

<g transform="translate(0.000000,512.000000) scale(0.100000,-0.100000)"
fill="#000000" stroke="none">
<path d="M1170 5105 c-249 -53 -452 -240 -517 -476 -17 -60 -18 -195 -18
-2289 l0 -2225 24 -39 c40 -64 125 -92 194 -62 18 7 376 242 797 521 421 279
795 527 831 550 l66 43 844 -550 c464 -303 858 -557 876 -564 69 -30 154 -2
194 62 l24 39 0 2225 c0 2094 -1 2229 -18 2289 -52 190 -203 359 -392 438
-128 54 -97 53 -1522 52 -1079 0 -1330 -3 -1383 -14z m2802 -343 c78 -38 147
-109 175 -180 17 -45 18 -133 21 -2084 1 -1121 0 -2038 -3 -2038 -3 0 -349
223 -768 496 -419 274 -776 503 -794 510 -41 18 -75 18 -116 0 -18 -7 -369
-236 -780 -510 -412 -273 -750 -496 -753 -496 -2 0 -3 919 -2 2043 l3 2042 21
46 c43 92 134 169 233 195 36 10 342 12 1371 11 l1325 -2 67 -33z"/>
</g>
</svg>