<?xml version="1.0" standalone="no"?>
<!DOCTYPE svg PUBLIC "-//W3C//DTD SVG 20010904//EN"
 "http://www.w3.org/TR/2001/REC-SVG-20010904/DTD/svg10.dtd">
<svg version="1.0" xmlns="http://www.w3.org/2000/svg"
 width="512.000000pt" height="512.000000pt" viewBox="0 0 512.000000 512.000000"
 preserveAspectRatio="xMidYMid meet">

<g transform="translate(0.000000,512.000000) scale(0.100000,-0.100000)"
fill="#000000" stroke="none">
<path d="M585 4948 c-197 -37 -378 -222 -414 -422 -15 -81 -15 -1211 0 -1292
37 -207 221 -389 429 -424 45 -7 310 -10 842 -8 766 3 777 3 804 24 15 11 37
33 48 48 21 27 21 38 24 804 2 532 -1 797 -8 842 -35 208 -217 392 -424 429
-75 14 -1229 13 -1301 -1z m1269 -320 c53 -16 118 -81 134 -134 9 -31 12 -209
12 -708 l0 -666 -666 0 c-499 0 -677 3 -708 12 -53 16 -118 81 -134 134 -17
59 -17 1169 0 1228 15 50 80 118 128 133 52 16 1179 17 1234 1z"/>
<path d="M3225 4948 c-199 -37 -380 -224 -415 -428 -7 -45 -10 -309 -8 -841
l3 -776 29 -37 c52 -69 13 -66 864 -66 505 0 789 4 828 11 204 37 386 219 423
423 7 38 11 271 11 646 0 375 -4 608 -11 646 -37 204 -219 386 -423 423 -75
14 -1229 13 -1301 -1z m1269 -320 c53 -16 118 -81 134 -134 9 -31 12 -191 12
-620 0 -561 -1 -580 -21 -624 -27 -60 -45 -79 -104 -106 l-50 -24 -672 0 -673
0 0 666 c0 499 3 677 12 708 15 50 80 118 128 133 52 16 1179 17 1234 1z"/>
<path d="M585 2308 c-197 -37 -378 -222 -414 -422 -15 -81 -15 -1211 0 -1292
37 -204 219 -386 423 -423 81 -15 1211 -15 1292 0 204 37 386 219 423 423 7
39 11 323 11 828 0 851 3 812 -66 864 l-37 29 -791 1 c-468 1 -811 -2 -841 -8z
m1415 -980 c0 -655 -1 -674 -21 -718 -27 -60 -45 -79 -104 -106 l-50 -24 -579
0 c-429 0 -589 3 -620 12 -53 16 -118 81 -134 134 -17 59 -17 1169 0 1228 15
50 80 118 128 133 24 7 245 11 708 12 l672 1 0 -672z"/>
<path d="M2895 2306 c-37 -16 -70 -52 -84 -89 -15 -39 -15 -1541 0 -1623 37
-204 219 -386 423 -423 81 -15 1211 -15 1292 0 204 37 386 219 423 423 15 81
15 1211 0 1292 -37 204 -219 386 -423 423 -95 17 -1592 14 -1631 -3z m1599
-318 c53 -16 118 -81 134 -134 9 -31 12 -191 12 -620 0 -561 -1 -580 -21 -624
-27 -60 -45 -79 -104 -106 l-50 -24 -579 0 c-429 0 -589 3 -620 12 -53 16
-118 81 -134 134 -9 31 -12 209 -12 708 l0 666 666 0 c499 0 677 -3 708 -12z"/>
</g>
</svg>