<?xml version="1.0" standalone="no"?>
<!DOCTYPE svg PUBLIC "-//W3C//DTD SVG 20010904//EN"
 "http://www.w3.org/TR/2001/REC-SVG-20010904/DTD/svg10.dtd">
<svg version="1.0" xmlns="http://www.w3.org/2000/svg"
 width="512.000000pt" height="512.000000pt" viewBox="0 0 512.000000 512.000000"
 preserveAspectRatio="xMidYMid meet">

<g transform="translate(0.000000,512.000000) scale(0.100000,-0.100000)"
stroke="none">
<path d="M2160 5101 c-89 -27 -172 -97 -212 -179 -19 -40 -23 -63 -23 -150 l0
-102 -268 0 -269 0 -34 -34 -34 -34 0 -166 c0 -117 4 -176 14 -199 17 -43 76
-93 123 -106 52 -15 1534 -15 1585 -1 50 14 97 55 119 105 15 33 19 66 19 195
0 138 -2 159 -20 188 -11 18 -32 37 -46 42 -14 6 -142 10 -289 10 l-263 0 10
38 c6 20 8 65 5 100 -13 169 -160 303 -330 301 -34 0 -73 -4 -87 -8z m180
-173 c18 -13 42 -35 53 -50 27 -37 34 -122 14 -171 l-16 -37 -139 0 c-154 0
-152 -1 -173 68 -21 73 12 147 86 193 44 28 132 26 175 -3z"/>
<path d="M750 4551 c-54 -17 -109 -52 -143 -92 -72 -84 -67 92 -67 -2174 0
-2313 -8 -2098 84 -2191 92 -91 -46 -84 1590 -83 1189 0 1435 3 1406 13 -206
76 -376 229 -466 421 -58 124 -78 215 -77 350 2 223 86 420 244 571 157 149
334 223 542 227 l97 2 -2 1375 -3 1375 -22 47 c-29 63 -93 123 -159 148 -49
18 -78 20 -274 20 l-220 0 0 -151 c0 -84 -5 -169 -11 -189 -18 -59 -78 -130
-139 -164 l-55 -31 -809 -3 c-912 -3 -866 -6 -954 73 -80 72 -95 119 -100 308
l-4 157 -217 -1 c-119 0 -227 -4 -241 -8z m744 -932 c19 -15 26 -29 26 -56 0
-33 -12 -49 -137 -176 -76 -76 -148 -143 -161 -148 -36 -14 -80 11 -149 84
-72 75 -81 110 -38 152 34 35 68 32 114 -10 21 -19 42 -35 47 -35 4 0 56 47
114 105 116 114 135 122 184 84z m1964 -122 c11 -10 23 -29 26 -43 7 -28 -16
-79 -39 -88 -9 -3 -361 -6 -781 -6 l-765 0 -24 25 c-14 13 -25 35 -25 48 0 31
34 74 63 80 12 3 360 4 773 3 713 -1 753 -2 772 -19z m-1961 -649 c16 -14 23
-33 23 -57 0 -31 -13 -48 -143 -178 -181 -180 -178 -180 -290 -64 -86 88 -95
114 -52 156 35 36 77 33 123 -9 l37 -35 106 105 c92 90 110 104 139 104 21 0
43 -8 57 -22z m1959 -121 c37 -33 37 -81 0 -114 l-27 -23 -755 0 c-643 0 -759
2 -783 15 -48 24 -56 81 -16 120 l24 25 765 0 765 0 27 -23z m-1953 -649 c9
-11 17 -35 17 -52 0 -28 -19 -51 -150 -180 -180 -179 -174 -178 -287 -62 -81
82 -89 106 -50 152 35 40 78 37 125 -9 l38 -37 99 101 c55 55 109 105 120 109
28 13 67 3 88 -22z m1942 -104 c24 -10 46 -60 39 -89 -14 -57 19 -55 -820 -55
l-773 0 -20 26 c-12 15 -21 37 -21 49 0 12 9 34 21 49 l20 26 769 0 c423 0
776 -3 785 -6z"/>
<path d="M3710 1470 c-433 -112 -653 -584 -460 -985 119 -247 355 -395 630
-395 331 0 618 230 686 550 22 102 14 270 -16 360 -120 357 -485 561 -840 470z
m473 -461 c9 -12 17 -35 17 -52 0 -27 -25 -56 -193 -224 -237 -238 -219 -232
-349 -106 -49 48 -91 98 -94 110 -12 48 32 103 82 103 9 0 42 -26 75 -57 l60
-57 159 159 c154 152 160 157 192 151 18 -3 41 -16 51 -27z"/>
</g>
</svg>