<?xml version="1.0" standalone="no"?>
<!DOCTYPE svg PUBLIC "-//W3C//DTD SVG 20010904//EN"
 "http://www.w3.org/TR/2001/REC-SVG-20010904/DTD/svg10.dtd">
<svg version="1.0" xmlns="http://www.w3.org/2000/svg"
 width="512.000000pt" height="512.000000pt" viewBox="0 0 512.000000 512.000000"
 preserveAspectRatio="xMidYMid meet">

<g transform="translate(0.000000,512.000000) scale(0.100000,-0.100000)"
 stroke="none">
<path d="M54 3740 c-57 -23 -54 46 -54 -1182 l0 -1127 24 -28 24 -28 1621 -3
1621 -2 0 1190 0 1190 -775 0 -775 0 0 -275 0 -275 135 0 135 0 0 -90 0 -90
-365 0 -365 0 0 90 0 90 135 0 135 0 0 275 0 275 -737 -1 c-406 0 -748 -4
-759 -9z m1956 -1410 l0 -320 -275 0 -275 0 0 -135 0 -135 275 0 275 0 0 -95
0 -95 -365 0 -365 0 0 320 0 320 273 2 272 3 3 138 3 137 -276 0 -275 0 0 90
0 90 365 0 365 0 0 -320z"/>
<path d="M3475 3738 c-3 -7 -4 -254 -3 -548 l3 -535 823 -3 822 -2 0 519 0
520 -24 28 -24 28 -796 3 c-636 2 -797 0 -801 -10z m913 -310 l3 -138 134 0
135 0 0 -90 0 -90 -135 0 -134 0 -3 -137 -3 -138 -87 -3 -87 -3 -3 138 -3 138
-137 3 -138 3 0 89 0 89 138 3 137 3 3 138 3 138 87 -3 87 -3 3 -137z"/>
<path d="M3475 2458 c-3 -7 -4 -254 -3 -548 l3 -535 798 0 799 0 24 28 24 28
0 520 0 519 -820 0 c-647 0 -822 -3 -825 -12z m1185 -538 l0 -90 -365 0 -365
0 0 90 0 90 365 0 365 0 0 -90z"/>
</g>
</svg>