<?xml version="1.0" standalone="no"?>
<!DOCTYPE svg PUBLIC "-//W3C//DTD SVG 20010904//EN"
 "http://www.w3.org/TR/2001/REC-SVG-20010904/DTD/svg10.dtd">
<svg version="1.0" xmlns="http://www.w3.org/2000/svg"
 width="512.000000pt" height="512.000000pt" viewBox="0 0 512.000000 512.000000"
 preserveAspectRatio="xMidYMid meet">

<g transform="translate(0.000000,512.000000) scale(0.100000,-0.100000)"
fill="#000000" stroke="none">
<path d="M2127 5110 c-318 -58 -583 -271 -695 -560 -60 -154 -56 -69 -60
-1322 l-3 -1148 -67 -84 c-118 -147 -212 -352 -248 -546 -19 -99 -22 -312 -5
-411 43 -256 164 -492 346 -674 174 -174 377 -285 627 -342 102 -23 384 -23
488 1 304 68 557 228 735 465 230 305 305 685 210 1058 -35 137 -134 333 -224
446 l-71 87 -2 1148 c-3 1131 -3 1148 -24 1217 -52 173 -124 297 -238 411
-115 114 -231 182 -392 229 -98 29 -287 42 -377 25z m224 -470 c174 -33 329
-181 368 -351 7 -28 11 -463 11 -1220 l0 -1175 64 -57 c248 -219 335 -548 230
-868 -78 -239 -278 -430 -534 -511 -65 -20 -96 -23 -225 -23 -129 0 -160 3
-225 23 -308 97 -517 338 -571 657 -14 83 -6 234 17 320 39 147 133 299 250
402 l64 57 0 1175 c0 757 4 1192 11 1220 18 79 61 154 124 217 114 115 262
163 416 134z"/>
<path d="M2189 4327 c-27 -15 -52 -38 -66 -63 l-23 -39 0 -597 0 -598 165 0
165 0 -2 608 -3 607 -24 34 c-27 38 -90 70 -137 71 -17 0 -51 -10 -75 -23z"/>
<path d="M2098 2224 l-3 -507 -70 -42 c-134 -82 -218 -192 -250 -326 -49 -210
37 -423 219 -541 82 -53 169 -78 270 -78 145 0 254 46 357 149 239 240 182
625 -117 797 l-69 40 -3 507 -2 507 -165 0 -165 0 -2 -506z"/>
<path d="M3470 4150 l0 -150 310 0 310 0 0 150 0 150 -310 0 -310 0 0 -150z"/>
<path d="M3470 3590 l0 -150 165 0 165 0 0 150 0 150 -165 0 -165 0 0 -150z"/>
<path d="M3470 3030 l0 -150 310 0 311 0 -3 148 -3 147 -307 3 -308 2 0 -150z"/>
<path d="M3470 2460 l0 -150 165 0 165 0 0 150 0 150 -165 0 -165 0 0 -150z"/>
</g>
</svg>